<?xml version="1.0" encoding="utf-8"?><svg viewBox="0 0 40 40" xmlns="http://www.w3.org/2000/svg" xmlns:xlink="http://www.w3.org/1999/xlink"><style>:root>svg{display:none}:root>svg:target{display:block}</style><svg fill="none" viewBox="0 0 30 30" id="aboutUs-svg" xmlns="http://www.w3.org/2000/svg"><path d="M11.836 21.023a.494.494 0 01-.32-.118L8.31 18.176a.495.495 0 010-.754l3.205-2.729a.495.495 0 11.642.754l-2.762 2.352 2.762 2.352a.495.495 0 01-.322.872zM18.163 21.023a.495.495 0 01-.321-.872l2.762-2.352-2.762-2.352a.495.495 0 11.642-.754l3.205 2.729a.495.495 0 010 .754l-3.205 2.73a.493.493 0 01-.32.117zM13.865 23.07a.495.495 0 01-.485-.598l1.997-9.483a.495.495 0 01.97.205l-1.998 9.483a.496.496 0 01-.484.394z" fill="var(--coding-color, #4985FF)"/><path d="M26.674 28.237H3.325A3.33 3.33 0 010 24.912V5.095a3.33 3.33 0 013.325-3.326h23.35A3.33 3.33 0 0130 5.095v19.817a3.33 3.33 0 01-3.326 3.325zM3.325 2.76A2.338 2.338 0 00.991 5.095v19.817a2.338 2.338 0 002.334 2.335h23.35a2.338 2.338 0 002.334-2.335V5.095a2.338 2.338 0 00-2.335-2.335H3.325z" fill="var(--coding-color, #4985FF)"/><path d="M29.505 9.7H.495a.495.495 0 110-.991h29.01a.495.495 0 010 .99zM8.462 7.33a1.57 1.57 0 01-1.567-1.568 1.57 1.57 0 011.567-1.567 1.57 1.57 0 011.567 1.567A1.57 1.57 0 018.462 7.33zm0-2.145a.578.578 0 10.001 1.156.578.578 0 00-.001-1.156zM3.647 7.314A1.57 1.57 0 012.08 5.747 1.57 1.57 0 013.647 4.18a1.57 1.57 0 011.568 1.567 1.57 1.57 0 01-1.568 1.567zm0-2.144a.578.578 0 10.002 1.156.578.578 0 00-.002-1.156zM13.278 7.344a1.57 1.57 0 01-1.567-1.567 1.57 1.57 0 011.567-1.567 1.57 1.57 0 011.567 1.567 1.57 1.57 0 01-1.567 1.567zm0-2.144a.577.577 0 10.002 1.155.577.577 0 00-.002-1.155z" fill="var(--coding-color, #4985FF)"/></svg><svg fill="none" viewBox="0 0 40 40" id="services-item__icon" xmlns="http://www.w3.org/2000/svg"><path d="M39.333 0h-30a.667.667 0 00-.667.667v10h1.333V1.333h28.667V38a.656.656 0 01-.614.667c-.057 0-.115-.005-.172-.006-.118-.004-.236-.006-.352-.018-.01 0-.02 0-.03-.004a4.673 4.673 0 01-4.137-4.134c0-.01-.003-.02-.004-.028a4.685 4.685 0 01-.024-.477v-1.333a.667.667 0 00-.667-.667H9.999V20H8.666v12H3.333a.667.667 0 00-.667.667V34a6.007 6.007 0 006 6h29.4a1.985 1.985 0 001.933-2V.667A.667.667 0 0039.333 0zM8.666 38.667A4.672 4.672 0 013.999 34v-.667h28V34c.001.22.014.44.038.658.006.058.018.114.026.171.022.162.048.322.084.48.012.056.027.11.041.166a6.003 6.003 0 00.393 1.094c.016.032.03.066.046.096.084.17.176.333.276.493l.038.067c.109.17.226.334.352.493l.021.029a5.879 5.879 0 00.913.922l-25.561-.002z" fill="var(--logo-color, #4985FF)"/><path d="M22 18.667c.177 0 .346-.07.471-.196l2.667-2.666a.667.667 0 000-.943l-2.667-2.667A.667.667 0 0022 12H3.333a3.333 3.333 0 000 6.667H22zm-.172-5.23l1.896 1.896-1.896 1.896-.474-1.896.474-1.896zm-16.495-.104H20.48l-.333 1.334H6.667V16h13.48l.333 1.333H5.333v-4zm-4 2a2 2 0 012-2H4v4h-.667a2 2 0 01-2-2zM15.332 28.667h20A.667.667 0 0036 28V8a.667.667 0 00-1.138-.471l-20 20a.667.667 0 00.471 1.138zM34.666 9.609v1.724h-1.333v1.334h1.333V14h-1.333v1.333h1.333v1.334h-1.333V18h1.333v1.333h-1.333v1.334h1.333V22h-1.333v1.333h1.333v1.334h-1.333V26h1.333v1.333h-1.333V26h-1.334v1.333h-1.333V26h-1.334v1.333H28V26h-1.333v1.333h-1.334V26H24v1.333h-1.333V26h-1.334v1.333H20V26h-1.333v1.333h-1.724L34.666 9.61z" fill="var(--logo-color, #4985FF)"/><path d="M24.99 24.667h6.344a.667.667 0 00.667-.667v-6.343a.667.667 0 00-1.138-.472l-6.344 6.344a.667.667 0 00.472 1.138zm5.677-5.4v4.066h-4.066l4.066-4.066zM30.667 4H17.334v1.333h13.333V4zM32.667 6.667H15.334V8h17.333V6.667zM15.334 20.666h-4V22h4v-1.334zM14 23.334h-2.666v1.333h2.667v-1.334z" fill="var(--logo-color, #4985FF)"/></svg></svg>